<?xml version="1.0" encoding="utf-8"?><!DOCTYPE svg PUBLIC "-//W3C//DTD SVG 1.1//EN" "http://www.w3.org/Graphics/SVG/1.1/DTD/svg11.dtd"><svg width="168" height="128" viewBox="0 0 168 128" xmlns="http://www.w3.org/2000/svg" xmlns:xlink="http://www.w3.org/1999/xlink"><svg width="36" height="32" viewBox="0 0 36 32" id="bubbles-bubbles"><path d="M34 28.161a3.65 3.65 0 0 0 2 3.256v.498a7.42 7.42 0 0 1-6.414-2.251c-.819.218-1.688.336-2.587.336-4.971 0-9-3.582-9-8s4.029-8 9-8 9 3.582 9 8c0 1.73-.618 3.331-1.667 4.64a3.635 3.635 0 0 0-.333 1.522zM16 0c8.702 0 15.781 5.644 15.995 12.672A12.262 12.262 0 0 0 27 11.625c-2.986 0-5.807 1.045-7.942 2.943-2.214 1.968-3.433 4.607-3.433 7.432 0 1.396.298 2.747.867 3.993a19.66 19.66 0 0 1-2.987-.151C10.068 29.279 5.966 29.895 2 29.986v-.841C4.142 28.096 6 26.184 6 24c0-.305-.024-.604-.068-.897C2.313 20.72 0 17.079 0 13 0 5.82 7.163 0 16 0z"/></svg><svg width="36" height="32" viewBox="0 0 36 32" id="bubbles-bubbles2" x="36"><path d="M15 0c8.284 0 15 5.435 15 12.139s-6.716 12.139-15 12.139c-.796 0-1.576-.051-2.339-.147C9.439 27.34 5.718 27.916 2 28v-.785c2.008-.98 3.625-2.765 3.625-4.804 0-.285-.022-.564-.063-.837C2.17 19.349 0 15.949 0 12.14 0 5.436 6.716.001 15 .001zm16.125 27.209c0 1.748 1.135 3.278 2.875 4.118V32c-3.223-.072-6.181-.566-8.973-3.316-.661.083-1.337.126-2.027.126-2.983 0-5.732-.805-7.925-2.157 4.521-.016 8.789-1.464 12.026-4.084 1.631-1.32 2.919-2.87 3.825-4.605.961-1.84 1.449-3.799 1.449-5.825 0-.326-.014-.651-.039-.974C34.604 13.038 36 15.591 36 18.405c0 3.265-1.88 6.179-4.82 8.086a4.722 4.722 0 0 0-.055.718z"/></svg><svg width="32" height="32" viewBox="0 0 32 32" id="home-home" x="64" y="96"><path d="M32 18.451L16 6.031 0 18.451v-5.064L16 .967l16 12.42zM28 18v12h-8v-8h-8v8H4V18l12-9z"/></svg><svg width="32" height="32" viewBox="0 0 32 32" id="home-home2" x="36" y="32"><path d="M16 1L0 17l3 3 3-3v13h8v-6h4v6h8V17l3 3 3-3L16 1zm0 13a2 2 0 1 1-.001-3.999A2 2 0 0 1 16 14z"/></svg><svg width="32" height="32" viewBox="0 0 32 32" id="home-home3" x="72"><path d="M32 19l-6-6V4h-4v5l-6-6L0 19v1h4v10h10v-6h4v6h10V20h4z"/></svg><svg width="32" height="32" viewBox="0 0 32 32" id="home-office" x="72" y="32"><path d="M0 32h16V0H0v32zM10 4h4v4h-4V4zm0 8h4v4h-4v-4zm0 8h4v4h-4v-4zM2 4h4v4H2V4zm0 8h4v4H2v-4zm0 8h4v4H2v-4zm16-10h14v2H18zm0 22h4v-8h6v8h4V14H18z"/></svg><svg width="32" height="32" viewBox="0 0 32 32" id="home-paint-format" y="64"><path d="M32 18V6h-6V4c0-1.1-.9-2-2-2H2C.9 2 0 2.9 0 4v6c0 1.1.9 2 2 2h22c1.1 0 2-.9 2-2V8h4v8H12v4h-1a1 1 0 0 0-1 1v10a1 1 0 0 0 1 1h4a1 1 0 0 0 1-1V21a1 1 0 0 0-1-1h-1v-2h18zM24 6H2V4h22v2z"/></svg><svg width="32" height="32" viewBox="0 0 32 32" id="home-pencil" x="32" y="64"><path d="M27 0a5 5 0 0 1 4 8l-2 2-7-7 2-2c.836-.628 1.874-1 3-1zM2 23l-2 9 9-2 18.5-18.5-7-7L2 23zm20.362-11.638l-14 14-1.724-1.724 14-14 1.724 1.724z"/></svg><svg width="32" height="32" viewBox="0 0 32 32" id="home-pencil2" x="64" y="64"><path d="M12 20l4-2L30 4l-2-2-14 14-2 4zm-2.959 7.097c-.989-2.085-2.052-3.149-4.137-4.137l3.097-8.525 4-2.435 12-12h-6l-12 12-6 20 20-6 12-12V8l-12 12-2.435 4z"/></svg><svg width="32" height="32" viewBox="0 0 32 32" id="home-quill" x="136" y="32"><path d="M0 32C4 20 14.469 0 32 0c-8.219 6.594-12 22-18 22H8L2 32H0z"/></svg><svg width="32" height="32" viewBox="0 0 32 32" id="media-camera" x="104" y="32"><path d="M9.5 19a6.5 6.5 0 1 0 13 0 6.5 6.5 0 0 0-13 0zM30 8h-7c-.5-2-1-4-3-4h-8c-2 0-2.5 2-3 4H2c-1.1 0-2 .9-2 2v18c0 1.1.9 2 2 2h28c1.1 0 2-.9 2-2V10c0-1.1-.9-2-2-2zM16 27.875c-4.902 0-8.875-3.973-8.875-8.875s3.973-8.875 8.875-8.875 8.875 3.973 8.875 8.875-3.973 8.875-8.875 8.875zM30 14h-4v-2h4v2z"/></svg><svg width="32" height="32" viewBox="0 0 32 32" id="media-film" x="104" y="64"><path d="M0 4v24h32V4H0zm6 22H2v-4h4v4zm0-8H2v-4h4v4zm0-8H2V6h4v4zm18 16H8V6h16v20zm6 0h-4v-4h4v4zm0-8h-4v-4h4v4zm0-8h-4V6h4v4zm-18 0v12l8-6z"/></svg><svg width="32" height="32" viewBox="0 0 32 32" id="media-headphones" y="96"><path d="M9 18H7v14h2c.55 0 1-.45 1-1V19c0-.55-.45-1-1-1zM23 18c-.55 0-1 .45-1 1v12c0 .55.45 1 1 1h2V18h-2z"/><path d="M32 16c0-8.837-7.163-16-16-16S0 7.163 0 16c0 1.919.338 3.759.958 5.464A7.003 7.003 0 0 0 6 31.929V18.072a6.957 6.957 0 0 0-2.742 1.012A13.09 13.09 0 0 1 3 16.5c0-7.18 5.82-13 13-13s13 5.82 13 13c0 .885-.088 1.749-.257 2.584A6.963 6.963 0 0 0 26 18.071v13.858a7.001 7.001 0 0 0 5.042-10.465c.62-1.705.958-3.545.958-5.465z"/></svg><svg width="32" height="32" viewBox="0 0 32 32" id="media-image" x="32" y="96"><path d="M29.996 4l.004.004v23.993l-.004.004H2.003l-.004-.004V4.004L2.003 4h27.993zM30 2H2C.9 2 0 2.9 0 4v24c0 1.1.9 2 2 2h28c1.1 0 2-.9 2-2V4c0-1.1-.9-2-2-2z"/><path d="M26 9a3 3 0 1 1-6 0 3 3 0 0 1 6 0zM28 26H4v-4l7-12 8 10h2l7-6z"/></svg><svg width="36" height="32" viewBox="0 0 36 32" id="media-images" y="32"><path d="M34 4h-2V2c0-1.1-.9-2-2-2H2C.9 0 0 .9 0 2v24c0 1.1.9 2 2 2h2v2c0 1.1.9 2 2 2h28c1.1 0 2-.9 2-2V6c0-1.1-.9-2-2-2zM4 6v20H2.004L2 25.996V2.003l.004-.004h27.993l.004.004v1.996h-24c-1.1 0-2 .9-2 2zm30 23.996l-.004.004H6.003l-.004-.004V6.003l.004-.004h27.993l.004.004v23.993z"/><path d="M30 11a3 3 0 1 1-6 0 3 3 0 0 1 6 0zM32 28H8v-4l7-12 8 10h2l7-6z"/></svg><svg width="32" height="32" viewBox="0 0 32 32" id="media-music" x="96" y="96"><path d="M30 0h2v23c0 2.761-3.134 5-7 5s-7-2.239-7-5 3.134-5 7-5c1.959 0 3.729.575 5 1.501V8l-16 3.556V27c0 2.761-3.134 5-7 5s-7-2.239-7-5 3.134-5 7-5c1.959 0 3.729.575 5 1.501V4l18-4z"/></svg><svg width="32" height="32" viewBox="0 0 32 32" id="media-newspaper" x="136"><path d="M28 8V4H0v22a2 2 0 0 0 2 2h27a3 3 0 0 0 3-3V8h-4zm-2 18H2V6h24v20zM4 10h20v2H4zm12 4h8v2h-8zm0 4h8v2h-8zm0 4h6v2h-6zM4 14h10v10H4z"/></svg><svg width="32" height="32" viewBox="0 0 32 32" id="media-play" x="104"><path d="M30.662 5.003C26.174 4.358 21.214 4 16 4S5.826 4.358 1.338 5.003C.478 8.369 0 12.089 0 16s.477 7.63 1.338 10.997C5.827 27.642 10.786 28 16 28s10.174-.358 14.662-1.003C31.522 23.631 32 19.911 32 16s-.477-7.63-1.338-10.997zM12 22V10l10 6-10 6z"/></svg></svg>