<?xml version="1.0" standalone="no"?>
<!DOCTYPE svg PUBLIC "-//W3C//DTD SVG 1.1//EN" "http://www.w3.org/Graphics/SVG/1.1/DTD/svg11.dtd" >
<svg xmlns="http://www.w3.org/2000/svg" xmlns:xlink="http://www.w3.org/1999/xlink" version="1.1">
<metadata>
Created by FontForge 20150913 at Tue Jun  7 14:33:26 2016
 By HuHao
</metadata>
<defs>
<font id="night-elf" horiz-adv-x="512" >
  <font-face 
    font-family="night-elf"
    font-weight="400"
    font-stretch="normal"
    units-per-em="512"
    panose-1="2 0 5 3 0 0 0 0 0 0"
    ascent="448"
    descent="-64"
    bbox="0 -64 512 448"
    underline-thickness="25"
    underline-position="-76"
    unicode-range="U+0032-F11C"
  />
<missing-glyph horiz-adv-x="187" 
d="M17 0v341h136v-341h-136zM34 17h102v307h-102v-307z" />
    <glyph glyph-name="backward" unicode="backward" 
d="M256 -64q-106 0 -181 75t-75 181t75 181t181 75t181 -75t75 -181t-75 -181t-181 -75zM256 400q-86 0 -147 -61t-61 -147t61 -147t147 -61t147 61t61 147t-61 147t-147 61zM352 112l-112 80l112 80v-160zM224 112l-112 80l112 80v-160z" />
    <glyph glyph-name="backward2" unicode="backward&#x32;" horiz-adv-x="336" 
d="M176 368v-160l160 160v-352l-160 160v-160l-176 176z" />
    <glyph glyph-name="eject" unicode="eject" 
d="M0 64h512v-64h-512v64zM256 384l256 -256h-512z" />
    <glyph glyph-name="first" unicode="first" horiz-adv-x="384" 
d="M0 0v384h64v-176l160 160v-160l160 160v-352l-160 160v-160l-160 160v-176h-64z" />
    <glyph glyph-name="forward2" unicode="forward&#x32;" 
d="M256 448q106 0 181 -75t75 -181t-75 -181t-181 -75t-181 75t-75 181t75 181t181 75zM256 -16q86 0 147 61t61 147t-61 147t-147 61t-147 -61t-61 -147t61 -147t147 -61zM160 272l112 -80l-112 -80v160zM288 272l112 -80l-112 -80v160z" />
    <glyph glyph-name="forward3" unicode="forward&#x33;" horiz-adv-x="336" 
d="M160 16v160l-160 -160v352l160 -160v160l176 -176z" />
    <glyph glyph-name="infinite" unicode="infinite" 
d="M392 72q-50 0 -85 35l-51 51l-51 -51q-35 -35 -85 -35t-85 35t-35 85t35 85t85 35t85 -35l51 -51l51 51q35 35 85 35t85 -35t35 -85t-35 -85t-85 -35zM341 141q21 -21 51 -21t51 21t21 51t-21 51t-51 21t-51 -21l-51 -51zM120 264q-30 0 -51 -21t-21 -51t21 -51t51 -21
t51 21l51 51l-51 51q-21 21 -51 21z" />
    <glyph glyph-name="last" unicode="last" horiz-adv-x="384" 
d="M384 384v-384h-64v176l-160 -160v160l-160 -160v352l160 -160v160l160 -160v176h64z" />
    <glyph glyph-name="loop" unicode="loop" 
d="M64 288v-128h-64v192h384v96l128 -128l-128 -128v96h-320zM448 96v128h64v-192h-384v-96l-128 128l128 128v-96h320z" />
    <glyph glyph-name="loop2" unicode="loop&#x32;" 
d="M445 365l67 67v-176h-176l75 75q-62 69 -155 69q-86 0 -147 -61t-61 -147h-48q0 106 75 181t181 75q55 0 104 -22t85 -61zM464 192h48q0 -106 -75 -181t-181 -75q-55 0 -104 22t-85 61l-67 -67v176h176l-75 -75q62 -69 155 -69q86 0 147 61t61 147z" />
    <glyph glyph-name="next" unicode="next" 
d="M256 448q106 0 181 -75t75 -181t-75 -181t-181 -75t-181 75t-75 181t75 181t181 75zM256 -16q86 0 147 61t61 147t-61 147t-147 61t-147 -61t-61 -147t61 -147t147 -61zM288 192l-128 -96v192zM352 288v-192h-64v192h64z" />
    <glyph glyph-name="next2" unicode="next&#x32;" horiz-adv-x="224" 
d="M224 384v-384h-64v176l-160 -160v352l160 -160v176h64z" />
    <glyph glyph-name="pause" unicode="pause" 
d="M256 448q106 0 181 -75t75 -181t-75 -181t-181 -75t-181 75t-75 181t75 181t181 75zM256 -16q86 0 147 61t61 147t-61 147t-147 61t-147 -61t-61 -147t61 -147t147 -61zM160 288h64v-192h-64v192zM288 288h64v-192h-64v192z" />
    <glyph glyph-name="pause2" unicode="pause&#x32;" horiz-adv-x="384" 
d="M0 384h160v-384h-160v384zM224 384h160v-384h-160v384z" />
    <glyph glyph-name="play2" unicode="play&#x32;" 
d="M256 448q106 0 181 -75t75 -181t-75 -181t-181 -75t-181 75t-75 181t75 181t181 75zM256 -16q86 0 147 61t61 147t-61 147t-147 61t-147 -61t-61 -147t61 -147t147 -61zM192 304l192 -112l-192 -112v224z" />
    <glyph glyph-name="play3" unicode="play&#x33;" horiz-adv-x="320" 
d="M0 384l320 -192l-320 -192v384z" />
    <glyph glyph-name="previous" unicode="previous" 
d="M256 448q106 0 181 -75t75 -181t-75 -181t-181 -75t-181 75t-75 181t75 181t181 75zM256 -16q86 0 147 61t61 147t-61 147t-147 61t-147 -61t-61 -147t61 -147t147 -61zM224 192l128 96v-192zM160 288h64v-192h-64v192z" />
    <glyph glyph-name="previous2" unicode="previous&#x32;" horiz-adv-x="224" 
d="M0 0v384h64v-176l160 160v-352l-160 160v-176h-64z" />
    <glyph glyph-name="shuffle" unicode="shuffle" horiz-adv-x="496" 
d="M384 96v80l112 -112l-112 -112v80h-64q-13 0 -23 9l-89 90l-89 -90q-10 -9 -23 -9h-96v64h83l80 80l-80 80h-83v64h96q13 0 23 -9l89 -90l89 90q10 9 23 9h64v80l112 -112l-112 -112v80h-51l-80 -80l80 -80h51z" />
    <glyph glyph-name="stop" unicode="stop" 
d="M256 448q106 0 181 -75t75 -181t-75 -181t-181 -75t-181 75t-75 181t75 181t181 75zM256 -16q86 0 147 61t61 147t-61 147t-147 61t-147 -61t-61 -147t61 -147t147 -61zM160 288h192v-192h-192v192z" />
    <glyph glyph-name="stop2" unicode="stop&#x32;" horiz-adv-x="384" 
d="M0 384h384v-384h-384v384z" />
    <glyph glyph-name="volume_decrease" unicode="volume_decrease" 
d="M256 224h256v-64h-256v64zM208 -32q-7 0 -11 5l-124 123h-57q-7 0 -11.5 4.5t-4.5 11.5v160q0 7 4.5 11.5t11.5 4.5h57l124 123q7 8 17 4t10 -15v-416q0 -11 -10 -15q-3 -1 -6 -1z" />
    <glyph glyph-name="volume_high" unicode="volume_high" 
d="M418.5 14q-9.5 0 -16 6.5t-6.5 16t7 16.5q64 64 64 154.5t-64 153.5q-7 7 -7 16.5t6.5 16t16 6.5t16.5 -7q77 -77 77 -186t-77 -186q-7 -7 -16.5 -7zM339 57q-10 0 -16.5 6.5t-6.5 16t7 15.5q46 46 46 112t-46 112q-7 6 -7 15.5t6.5 16t16 6.5t16.5 -6q59 -60 59 -144
t-59 -144q-7 -6 -16 -6v0zM258.5 99q-9.5 0 -16 7t-6.5 16t6 16q29 28 29 69t-29 69q-6 7 -6 16.5t6.5 16t16 6.5t15.5 -7q21 -20 31.5 -47t10.5 -54t-10.5 -54t-31.5 -47q-6 -7 -15.5 -7zM196 -4q-6 0 -11 5l-116 116h-54q-6 0 -10.5 4.5t-4.5 10.5v150q0 7 4.5 11t10.5 4
h54l116 116q7 8 16.5 4t9.5 -14v-392q0 -10 -9 -14q-3 -1 -6 -1z" />
    <glyph glyph-name="volume_increase" unicode="volume_increase" 
d="M512 160h-96v-96h-64v96h-96v64h96v96h64v-96h96v-64zM208 -32q-7 0 -11 5l-124 123h-57q-7 0 -11.5 4.5t-4.5 11.5v160q0 7 4.5 11.5t11.5 4.5h57l124 123q7 8 17 4t10 -15v-416q0 -11 -10 -15q-3 -1 -6 -1z" />
    <glyph glyph-name="volume_low" unicode="volume_low" horiz-adv-x="336" 
d="M274.5 77q-9.5 0 -16.5 7.5t-7 17t7 16.5q30 31 30 74t-30 74q-7 7 -7 16.5t7 17t16.5 7.5t16.5 -8q45 -44 45 -107t-45 -107q-7 -8 -16.5 -8zM208 -32q-7 0 -11 5l-124 123h-57q-7 0 -11.5 4.5t-4.5 11.5v160q0 7 4.5 11.5t11.5 4.5h57l124 123q7 8 17 4t10 -15v-416
q0 -11 -10 -15q-3 -1 -6 -1z" />
    <glyph glyph-name="volume_medium" unicode="volume_medium" horiz-adv-x="440" 
d="M360 32q-10 0 -17 7t-7 17t7 17q49 49 49 119t-49 119q-7 7 -7 17t7 17t17 7t17 -7q63 -64 63 -153t-63 -153q-7 -7 -17 -7v0zM274.5 77q-9.5 0 -16.5 7.5t-7 17t7 16.5q30 31 30 74t-30 74q-7 7 -7 16.5t7 17t16.5 7.5t16.5 -8q45 -44 45 -107t-45 -107q-7 -8 -16.5 -8z
M208 -32q-7 0 -11 5l-124 123h-57q-7 0 -11.5 4.5t-4.5 11.5v160q0 7 4.5 11.5t11.5 4.5h57l124 123q7 8 17 4t10 -15v-416q0 -11 -10 -15q-3 -1 -6 -1z" />
    <glyph glyph-name="volume_mute" unicode="volume_mute" horiz-adv-x="224" 
d="M208 -32q-7 0 -11 5l-124 123h-57q-7 0 -11.5 4.5t-4.5 11.5v160q0 7 4.5 11.5t11.5 4.5h57l124 123q7 8 17 4t10 -15v-416q0 -11 -10 -15q-3 -1 -6 -1z" />
    <glyph glyph-name="volume_mute2" unicode="volume_mute&#x32;" horiz-adv-x="480" 
d="M480 138v-42h-42l-54 54l-54 -54h-42v42l54 54l-54 54v42h42l54 -54l54 54h42v-42l-54 -54zM208 -32q-7 0 -11 5l-124 123h-57q-7 0 -11.5 4.5t-4.5 11.5v160q0 7 4.5 11.5t11.5 4.5h57l124 123q7 8 17 4t10 -15v-416q0 -11 -10 -15q-3 -1 -6 -1z" />
    <glyph glyph-name=".notdef" horiz-adv-x="187" 
d="M17 0v341h136v-341h-136zM34 17h102v307h-102v-307z" />
    <glyph glyph-name=".null" horiz-adv-x="0" 
 />
    <glyph glyph-name="nonmarkingreturn" horiz-adv-x="170" 
 />
    <glyph glyph-name="2" unicode="2" 
d="M0 0z" />
    <glyph glyph-name="3" unicode="3" 
d="M0 0z" />
    <glyph glyph-name="_" unicode="_" 
d="M0 0z" />
    <glyph glyph-name="a" unicode="a" 
d="M0 0z" />
    <glyph glyph-name="b" unicode="b" 
d="M0 0z" />
    <glyph glyph-name="c" unicode="c" 
d="M0 0z" />
    <glyph glyph-name="d" unicode="d" 
d="M0 0z" />
    <glyph glyph-name="e" unicode="e" 
d="M0 0z" />
    <glyph glyph-name="f" unicode="f" 
d="M0 0z" />
    <glyph glyph-name="g" unicode="g" 
d="M0 0z" />
    <glyph glyph-name="h" unicode="h" 
d="M0 0z" />
    <glyph glyph-name="i" unicode="i" 
d="M0 0z" />
    <glyph glyph-name="j" unicode="j" 
d="M0 0z" />
    <glyph glyph-name="k" unicode="k" 
d="M0 0z" />
    <glyph glyph-name="l" unicode="l" 
d="M0 0z" />
    <glyph glyph-name="m" unicode="m" 
d="M0 0z" />
    <glyph glyph-name="n" unicode="n" 
d="M0 0z" />
    <glyph glyph-name="o" unicode="o" 
d="M0 0z" />
    <glyph glyph-name="p" unicode="p" 
d="M0 0z" />
    <glyph glyph-name="r" unicode="r" 
d="M0 0z" />
    <glyph glyph-name="s" unicode="s" 
d="M0 0z" />
    <glyph glyph-name="t" unicode="t" 
d="M0 0z" />
    <glyph glyph-name="u" unicode="u" 
d="M0 0z" />
    <glyph glyph-name="v" unicode="v" 
d="M0 0z" />
    <glyph glyph-name="w" unicode="w" 
d="M0 0z" />
    <glyph glyph-name="x" unicode="x" 
d="M0 0z" />
    <glyph glyph-name="y" unicode="y" 
d="M0 0z" />
  </font>
</defs>
</svg>
